# MagicaVoxel @ Ephtracy

# group
g citizen_arm

# material
mtllib citizen_arm.mtl
usemtl palette

# normals
vn -1 0 0
vn 1 0 0
vn 0 0 1
vn 0 0 -1
vn 0 -1 0
vn 0 1 0

# texcoords
vt 0.0332031 0.5
vt 0.0371094 0.5
vt 0.0761719 0.5
vt 0.162109 0.5
vt 0.166016 0.5

# verts
v -7 6 6
v -7 6 3
v -7 6 2
v -7 6 -2
v -7 9 6
v -7 9 3
v -7 9 2
v -7 9 1
v -7 9 -2
v -7 11 1
v -7 11 -2
v -5 8 5
v -5 8 4
v -5 9 5
v -5 9 4
v 4 6 4
v 4 6 3
v 4 6 2
v 4 6 -2
v 4 8 5
v 4 8 4
v 4 8 3
v 4 9 5
v 4 9 3
v 4 9 2
v 4 9 1
v 4 9 -2
v 4 11 1
v 4 11 -2
v 6 6 6
v 6 6 4
v 6 9 6
v 6 9 4
v -6 6 6
v -6 6 4
v -6 9 6
v -6 9 4
v -4 6 4
v -4 6 3
v -4 6 2
v -4 6 -2
v -4 8 5
v -4 8 4
v -4 8 3
v -4 9 5
v -4 9 3
v -4 9 2
v -4 9 1
v -4 9 -2
v -4 11 1
v -4 11 -2
v 5 8 5
v 5 8 4
v 5 9 5
v 5 9 4
v 7 6 6
v 7 6 3
v 7 6 2
v 7 6 -2
v 7 9 6
v 7 9 3
v 7 9 2
v 7 9 1
v 7 9 -2
v 7 11 1
v 7 11 -2
v -7 6 6
v -7 9 6
v -6 6 6
v -6 9 6
v 6 6 6
v 6 9 6
v 7 6 6
v 7 9 6
v -5 8 5
v -5 9 5
v -4 8 5
v -4 9 5
v 4 8 5
v 4 9 5
v 5 8 5
v 5 9 5
v -6 6 4
v -6 9 4
v -5 8 4
v -5 9 4
v -4 6 4
v -4 8 4
v 4 6 4
v 4 8 4
v 5 8 4
v 5 9 4
v 6 6 4
v 6 9 4
v -7 9 1
v -7 11 1
v -4 9 1
v -4 11 1
v 4 9 1
v 4 11 1
v 7 9 1
v 7 11 1
v -7 6 -2
v -7 9 -2
v -7 11 -2
v -4 6 -2
v -4 9 -2
v -4 11 -2
v 4 6 -2
v 4 9 -2
v 4 11 -2
v 7 6 -2
v 7 9 -2
v 7 11 -2
v -7 6 6
v -6 6 6
v 6 6 6
v 7 6 6
v -6 6 4
v -4 6 4
v 4 6 4
v 6 6 4
v -7 6 3
v -6 6 3
v -4 6 3
v 4 6 3
v 6 6 3
v 7 6 3
v -7 6 2
v -4 6 2
v 4 6 2
v 7 6 2
v -7 6 -2
v -4 6 -2
v 4 6 -2
v 7 6 -2
v -5 8 5
v -4 8 5
v 4 8 5
v 5 8 5
v -5 8 4
v -4 8 4
v 4 8 4
v 5 8 4
v -7 9 6
v -6 9 6
v 6 9 6
v 7 9 6
v -5 9 5
v -4 9 5
v 4 9 5
v 5 9 5
v -6 9 4
v -5 9 4
v 5 9 4
v 6 9 4
v -7 9 3
v -6 9 3
v -5 9 3
v -4 9 3
v 4 9 3
v 5 9 3
v 6 9 3
v 7 9 3
v -7 9 2
v -4 9 2
v 4 9 2
v 7 9 2
v -7 9 1
v -4 9 1
v 4 9 1
v 7 9 1
v -7 11 1
v -4 11 1
v 4 11 1
v 7 11 1
v -7 11 -2
v -4 11 -2
v 4 11 -2
v 7 11 -2

# faces
f 5/4/1 2/4/1 1/4/1
f 6/2/1 3/2/1 2/2/1
f 6/4/1 2/4/1 5/4/1
f 7/1/1 4/1/1 3/1/1
f 7/2/1 3/2/1 6/2/1
f 8/1/1 4/1/1 7/1/1
f 9/1/1 4/1/1 8/1/1
f 10/3/1 9/3/1 8/3/1
f 11/3/1 9/3/1 10/3/1
f 14/4/1 13/4/1 12/4/1
f 15/4/1 13/4/1 14/4/1
f 21/5/1 17/5/1 16/5/1
f 22/2/1 18/2/1 17/2/1
f 22/5/1 17/5/1 21/5/1
f 23/4/1 21/4/1 20/4/1
f 23/4/1 22/4/1 21/4/1
f 24/2/1 18/2/1 22/2/1
f 24/4/1 22/4/1 23/4/1
f 25/1/1 19/1/1 18/1/1
f 25/2/1 18/2/1 24/2/1
f 26/1/1 19/1/1 25/1/1
f 27/1/1 19/1/1 26/1/1
f 28/3/1 27/3/1 26/3/1
f 29/3/1 27/3/1 28/3/1
f 32/4/1 31/4/1 30/4/1
f 33/4/1 31/4/1 32/4/1
f 34/4/2 35/4/2 36/4/2
f 36/4/2 35/4/2 37/4/2
f 38/5/2 39/5/2 43/5/2
f 39/2/2 40/2/2 44/2/2
f 43/5/2 39/5/2 44/5/2
f 42/4/2 43/4/2 45/4/2
f 43/4/2 44/4/2 45/4/2
f 44/2/2 40/2/2 46/2/2
f 45/4/2 44/4/2 46/4/2
f 40/1/2 41/1/2 47/1/2
f 46/2/2 40/2/2 47/2/2
f 47/1/2 41/1/2 48/1/2
f 48/1/2 41/1/2 49/1/2
f 48/3/2 49/3/2 50/3/2
f 50/3/2 49/3/2 51/3/2
f 52/4/2 53/4/2 54/4/2
f 54/4/2 53/4/2 55/4/2
f 56/4/2 57/4/2 60/4/2
f 57/2/2 58/2/2 61/2/2
f 60/4/2 57/4/2 61/4/2
f 58/1/2 59/1/2 62/1/2
f 61/2/2 58/2/2 62/2/2
f 62/1/2 59/1/2 63/1/2
f 63/1/2 59/1/2 64/1/2
f 63/3/2 64/3/2 65/3/2
f 65/3/2 64/3/2 66/3/2
f 69/4/3 68/4/3 67/4/3
f 70/4/3 68/4/3 69/4/3
f 73/4/3 72/4/3 71/4/3
f 74/4/3 72/4/3 73/4/3
f 77/4/3 76/4/3 75/4/3
f 78/4/3 76/4/3 77/4/3
f 81/4/3 80/4/3 79/4/3
f 82/4/3 80/4/3 81/4/3
f 85/5/3 84/5/3 83/5/3
f 86/5/3 84/5/3 85/5/3
f 87/5/3 85/5/3 83/5/3
f 88/5/3 85/5/3 87/5/3
f 91/5/3 90/5/3 89/5/3
f 93/5/3 91/5/3 89/5/3
f 93/5/3 92/5/3 91/5/3
f 94/5/3 92/5/3 93/5/3
f 97/3/3 96/3/3 95/3/3
f 98/3/3 96/3/3 97/3/3
f 101/3/3 100/3/3 99/3/3
f 102/3/3 100/3/3 101/3/3
f 103/1/4 104/1/4 106/1/4
f 104/3/4 105/3/4 107/3/4
f 106/1/4 104/1/4 107/1/4
f 107/3/4 105/3/4 108/3/4
f 109/1/4 110/1/4 112/1/4
f 110/3/4 111/3/4 113/3/4
f 112/1/4 110/1/4 113/1/4
f 113/3/4 111/3/4 114/3/4
f 119/4/5 116/4/5 115/4/5
f 122/4/5 118/4/5 117/4/5
f 123/4/5 119/4/5 115/4/5
f 124/5/5 120/5/5 119/5/5
f 124/4/5 119/4/5 123/4/5
f 125/5/5 120/5/5 124/5/5
f 126/5/5 122/5/5 121/5/5
f 127/4/5 118/4/5 122/4/5
f 127/5/5 122/5/5 126/5/5
f 128/4/5 118/4/5 127/4/5
f 129/2/5 125/2/5 124/2/5
f 129/2/5 124/2/5 123/2/5
f 130/2/5 125/2/5 129/2/5
f 131/2/5 128/2/5 127/2/5
f 131/2/5 127/2/5 126/2/5
f 132/2/5 128/2/5 131/2/5
f 133/1/5 130/1/5 129/1/5
f 134/1/5 130/1/5 133/1/5
f 135/1/5 132/1/5 131/1/5
f 136/1/5 132/1/5 135/1/5
f 141/4/5 138/4/5 137/4/5
f 142/4/5 138/4/5 141/4/5
f 143/4/5 140/4/5 139/4/5
f 144/4/5 140/4/5 143/4/5
f 145/4/6 146/4/6 153/4/6
f 149/4/6 150/4/6 154/4/6
f 151/4/6 152/4/6 155/4/6
f 147/4/6 148/4/6 156/4/6
f 145/4/6 153/4/6 157/4/6
f 153/5/6 154/5/6 158/5/6
f 157/4/6 153/4/6 158/4/6
f 154/4/6 150/4/6 159/4/6
f 158/5/6 154/5/6 159/5/6
f 159/4/6 150/4/6 160/4/6
f 151/4/6 155/4/6 161/4/6
f 155/5/6 156/5/6 162/5/6
f 161/4/6 155/4/6 162/4/6
f 156/4/6 148/4/6 163/4/6
f 162/5/6 156/5/6 163/5/6
f 163/4/6 148/4/6 164/4/6
f 159/2/6 160/2/6 165/2/6
f 157/2/6 158/2/6 165/2/6
f 158/2/6 159/2/6 165/2/6
f 165/2/6 160/2/6 166/2/6
f 163/2/6 164/2/6 167/2/6
f 161/2/6 162/2/6 167/2/6
f 162/2/6 163/2/6 167/2/6
f 167/2/6 164/2/6 168/2/6
f 165/1/6 166/1/6 169/1/6
f 169/1/6 166/1/6 170/1/6
f 167/1/6 168/1/6 171/1/6
f 171/1/6 168/1/6 172/1/6
f 173/3/6 174/3/6 177/3/6
f 177/3/6 174/3/6 178/3/6
f 175/3/6 176/3/6 179/3/6
f 179/3/6 176/3/6 180/3/6
