# MagicaVoxel @ Ephtracy

# group
g citizen

# material
mtllib citizen.mtl
usemtl palette

# normals
vn -1 0 0
vn 1 0 0
vn 0 0 1
vn 0 0 -1
vn 0 -1 0
vn 0 1 0

# texcoords
vt 0.0332031 0.5
vt 0.0371094 0.5
vt 0.0761719 0.5
vt 0.130859 0.5
vt 0.150391 0.5
vt 0.162109 0.5
vt 0.166016 0.5
vt 0.857422 0.5
vt 0.861328 0.5
vt 0.958984 0.5

# verts
v -5 3 2
v -5 3 -4
v -5 4 2
v -5 4 -4
v -5 6 2
v -5 6 -4
v -5 7 2
v -5 7 -4
v -5 11 2
v -5 11 1
v -5 11 -1
v -5 11 -2
v -5 11 -3
v -5 11 -4
v -5 12 1
v -5 12 -0
v -5 12 -1
v -5 13 -2
v -5 13 -3
v -5 14 1
v -5 14 -0
v -5 15 1
v -5 15 -1
v -5 16 5
v -5 16 2
v -5 16 -4
v -5 17 5
v -5 17 3
v -5 17 -4
v -5 18 3
v -5 18 -4
v -5 20 3
v -5 20 -4
v -4 0 3
v -4 0 -3
v -4 1 3
v -4 1 2
v -4 1 1
v -4 1 -3
v -4 2 2
v -4 2 1
v -4 2 -3
v -4 3 1
v -4 3 -3
v -4 11 3
v -4 11 2
v -4 11 1
v -4 11 -1
v -4 11 -2
v -4 11 -3
v -4 11 -4
v -4 11 -5
v -4 12 1
v -4 12 -0
v -4 12 -1
v -4 13 -2
v -4 13 -3
v -4 14 3
v -4 14 2
v -4 15 4
v -4 15 3
v -4 16 6
v -4 16 5
v -4 16 4
v -4 16 3
v -4 16 2
v -4 16 -4
v -4 16 -5
v -4 17 6
v -4 17 5
v -4 17 4
v -4 17 3
v -4 17 -4
v -4 17 -5
v -4 18 4
v -4 18 3
v -4 18 -4
v -4 18 -5
v -4 20 4
v -4 20 3
v -4 20 -4
v -4 20 -5
v -1 11 -4
v -1 11 -5
v -1 12 4
v -1 12 3
v -1 13 4
v -1 13 3
v -1 13 -4
v -1 13 -5
v -1 14 3
v -1 15 4
v -1 15 3
v 1 0 3
v 1 0 -3
v 1 1 3
v 1 1 2
v 1 1 1
v 1 1 -3
v 1 2 2
v 1 2 1
v 1 2 -3
v 1 3 -3
v 1 4 1
v 1 4 -3
v 1 10 2
v 1 10 1
v 1 11 2
v 1 11 1
v 1 15 4
v 1 15 3
v 1 16 4
v 1 16 3
v 2 3 2
v 2 3 1
v 2 4 2
v 2 4 1
v 2 11 -4
v 2 11 -5
v 2 13 -4
v 2 13 -5
v -2 3 2
v -2 3 1
v -2 4 2
v -2 4 1
v -2 11 -4
v -2 11 -5
v -2 13 -4
v -2 13 -5
v -1 0 3
v -1 0 -3
v -1 1 3
v -1 1 2
v -1 1 1
v -1 1 -3
v -1 2 2
v -1 2 1
v -1 2 -3
v -1 3 -3
v -1 4 1
v -1 4 -3
v -1 10 2
v -1 10 1
v -1 11 2
v -1 11 1
v -1 15 4
v -1 15 3
v -1 16 4
v -1 16 3
v 1 11 -4
v 1 11 -5
v 1 12 4
v 1 12 3
v 1 13 4
v 1 13 3
v 1 13 -4
v 1 13 -5
v 1 14 3
v 1 15 4
v 1 15 3
v 4 0 3
v 4 0 -3
v 4 1 3
v 4 1 2
v 4 1 1
v 4 1 -3
v 4 2 2
v 4 2 1
v 4 2 -3
v 4 3 1
v 4 3 -3
v 4 11 3
v 4 11 2
v 4 11 1
v 4 11 -1
v 4 11 -2
v 4 11 -3
v 4 11 -4
v 4 11 -5
v 4 12 1
v 4 12 -0
v 4 12 -1
v 4 13 -2
v 4 13 -3
v 4 14 3
v 4 14 2
v 4 15 4
v 4 15 3
v 4 16 6
v 4 16 5
v 4 16 4
v 4 16 3
v 4 16 2
v 4 16 -4
v 4 16 -5
v 4 17 6
v 4 17 5
v 4 17 4
v 4 17 3
v 4 17 -4
v 4 17 -5
v 4 18 4
v 4 18 3
v 4 18 -4
v 4 18 -5
v 4 20 4
v 4 20 3
v 4 20 -4
v 4 20 -5
v 5 3 2
v 5 3 -4
v 5 4 2
v 5 4 -4
v 5 6 2
v 5 6 -4
v 5 7 2
v 5 7 -4
v 5 11 2
v 5 11 1
v 5 11 -1
v 5 11 -2
v 5 11 -3
v 5 11 -4
v 5 12 1
v 5 12 -0
v 5 12 -1
v 5 13 -2
v 5 13 -3
v 5 14 1
v 5 14 -0
v 5 15 1
v 5 15 -1
v 5 16 5
v 5 16 2
v 5 16 -4
v 5 17 5
v 5 17 3
v 5 17 -4
v 5 18 3
v 5 18 -4
v 5 20 3
v 5 20 -4
v -4 16 6
v -4 17 6
v 4 16 6
v 4 17 6
v -5 16 5
v -5 17 5
v -4 16 5
v -4 17 5
v 4 16 5
v 4 17 5
v 5 16 5
v 5 17 5
v -4 15 4
v -4 16 4
v -4 17 4
v -4 18 4
v -4 20 4
v -1 12 4
v -1 13 4
v -1 15 4
v -1 16 4
v 1 12 4
v 1 13 4
v 1 15 4
v 1 16 4
v 4 15 4
v 4 16 4
v 4 17 4
v 4 18 4
v 4 20 4
v -5 17 3
v -5 18 3
v -5 20 3
v -4 0 3
v -4 1 3
v -4 11 3
v -4 14 3
v -4 15 3
v -4 17 3
v -4 18 3
v -4 20 3
v -3 11 3
v -3 13 3
v -3 14 3
v -3 15 3
v -2 11 3
v -2 12 3
v -2 14 3
v -2 15 3
v -1 0 3
v -1 1 3
v -1 12 3
v -1 13 3
v -1 14 3
v -1 15 3
v -1 16 3
v 1 0 3
v 1 1 3
v 1 12 3
v 1 13 3
v 1 14 3
v 1 15 3
v 1 16 3
v 2 11 3
v 2 12 3
v 2 14 3
v 2 15 3
v 3 11 3
v 3 13 3
v 3 14 3
v 3 15 3
v 4 0 3
v 4 1 3
v 4 11 3
v 4 14 3
v 4 15 3
v 4 17 3
v 4 18 3
v 4 20 3
v 5 17 3
v 5 18 3
v 5 20 3
v -5 3 2
v -5 4 2
v -5 6 2
v -5 7 2
v -5 11 2
v -5 16 2
v -4 1 2
v -4 2 2
v -4 11 2
v -4 14 2
v -4 16 2
v -3 4 2
v -3 6 2
v -3 7 2
v -3 11 2
v -2 3 2
v -2 4 2
v -2 5 2
v -2 6 2
v -2 7 2
v -2 8 2
v -2 10 2
v -2 11 2
v -1 1 2
v -1 2 2
v -1 6 2
v -1 7 2
v -1 9 2
v -1 10 2
v -1 11 2
v 1 1 2
v 1 2 2
v 1 6 2
v 1 7 2
v 1 9 2
v 1 10 2
v 1 11 2
v 2 3 2
v 2 4 2
v 2 5 2
v 2 6 2
v 2 7 2
v 2 8 2
v 2 10 2
v 2 11 2
v 3 4 2
v 3 6 2
v 3 7 2
v 3 11 2
v 4 1 2
v 4 2 2
v 4 11 2
v 4 14 2
v 4 16 2
v 5 3 2
v 5 4 2
v 5 6 2
v 5 7 2
v 5 11 2
v 5 16 2
v -4 2 1
v -4 3 1
v -2 3 1
v -2 4 1
v -1 2 1
v -1 4 1
v -1 10 1
v -1 11 1
v 1 2 1
v 1 4 1
v 1 10 1
v 1 11 1
v 2 3 1
v 2 4 1
v 4 2 1
v 4 3 1
v -5 11 -1
v -5 12 -1
v -4 11 -1
v -4 12 -1
v 4 11 -1
v 4 12 -1
v 5 11 -1
v 5 12 -1
v -5 11 -3
v -5 13 -3
v -4 11 -3
v -4 13 -3
v -1 3 -3
v -1 4 -3
v 1 3 -3
v 1 4 -3
v 4 11 -3
v 4 13 -3
v 5 11 -3
v 5 13 -3
v -5 11 1
v -5 12 1
v -4 11 1
v -4 12 1
v 4 11 1
v 4 12 1
v 5 11 1
v 5 12 1
v -5 11 -2
v -5 13 -2
v -4 11 -2
v -4 13 -2
v 4 11 -2
v 4 13 -2
v 5 11 -2
v 5 13 -2
v -4 0 -3
v -4 1 -3
v -4 2 -3
v -4 3 -3
v -1 0 -3
v -1 1 -3
v -1 2 -3
v -1 3 -3
v 1 0 -3
v 1 1 -3
v 1 2 -3
v 1 3 -3
v 4 0 -3
v 4 1 -3
v 4 2 -3
v 4 3 -3
v -5 3 -4
v -5 4 -4
v -5 6 -4
v -5 7 -4
v -5 11 -4
v -5 16 -4
v -5 17 -4
v -5 18 -4
v -5 20 -4
v -4 11 -4
v -4 16 -4
v -4 17 -4
v -4 18 -4
v -4 20 -4
v -2 11 -4
v -2 13 -4
v -1 11 -4
v -1 13 -4
v 1 11 -4
v 1 13 -4
v 2 11 -4
v 2 13 -4
v 4 11 -4
v 4 16 -4
v 4 17 -4
v 4 18 -4
v 4 20 -4
v 5 3 -4
v 5 4 -4
v 5 6 -4
v 5 7 -4
v 5 11 -4
v 5 16 -4
v 5 17 -4
v 5 18 -4
v 5 20 -4
v -4 11 -5
v -4 16 -5
v -4 17 -5
v -4 18 -5
v -4 20 -5
v -2 11 -5
v -2 13 -5
v -1 11 -5
v -1 13 -5
v 1 11 -5
v 1 13 -5
v 2 11 -5
v 2 13 -5
v 4 11 -5
v 4 16 -5
v 4 17 -5
v 4 18 -5
v 4 20 -5
v -4 0 3
v -1 0 3
v 1 0 3
v 4 0 3
v -4 0 -3
v -1 0 -3
v 1 0 -3
v 4 0 -3
v -5 3 2
v -2 3 2
v 2 3 2
v 5 3 2
v -4 3 1
v -2 3 1
v 2 3 1
v 4 3 1
v -4 3 -3
v -1 3 -3
v 1 3 -3
v 4 3 -3
v -5 3 -4
v 5 3 -4
v -2 4 2
v 2 4 2
v -2 4 1
v -1 4 1
v 1 4 1
v 2 4 1
v -1 4 -3
v 1 4 -3
v -4 11 3
v -3 11 3
v -2 11 3
v 2 11 3
v 3 11 3
v 4 11 3
v -4 11 2
v -3 11 2
v -2 11 2
v -1 11 2
v 1 11 2
v 2 11 2
v 3 11 2
v 4 11 2
v -1 11 1
v 1 11 1
v -4 11 -4
v -2 11 -4
v -1 11 -4
v 1 11 -4
v 2 11 -4
v 4 11 -4
v -4 11 -5
v -2 11 -5
v -1 11 -5
v 1 11 -5
v 2 11 -5
v 4 11 -5
v -1 12 4
v 1 12 4
v -1 12 3
v 1 12 3
v -5 12 1
v -4 12 1
v 4 12 1
v 5 12 1
v -5 12 -0
v -4 12 -0
v 4 12 -0
v 5 12 -0
v -5 12 -1
v -4 12 -1
v 4 12 -1
v 5 12 -1
v -5 13 -2
v -4 13 -2
v 4 13 -2
v 5 13 -2
v -5 13 -3
v -4 13 -3
v 4 13 -3
v 5 13 -3
v -2 13 -4
v -1 13 -4
v 1 13 -4
v 2 13 -4
v -2 13 -5
v -1 13 -5
v 1 13 -5
v 2 13 -5
v -4 15 4
v -1 15 4
v 1 15 4
v 4 15 4
v -4 15 3
v -3 15 3
v -2 15 3
v -1 15 3
v 1 15 3
v 2 15 3
v 3 15 3
v 4 15 3
v -4 16 6
v 4 16 6
v -5 16 5
v -4 16 5
v 4 16 5
v 5 16 5
v -4 16 4
v -1 16 4
v 1 16 4
v 4 16 4
v -4 16 3
v -1 16 3
v 1 16 3
v 4 16 3
v -5 16 2
v -4 16 2
v 4 16 2
v 5 16 2
v -4 1 3
v -1 1 3
v 1 1 3
v 4 1 3
v -4 1 2
v -1 1 2
v 1 1 2
v 4 1 2
v -4 2 2
v -1 2 2
v 1 2 2
v 4 2 2
v -4 2 1
v -1 2 1
v 1 2 1
v 4 2 1
v -1 10 2
v 1 10 2
v -1 10 1
v 1 10 1
v -5 11 1
v -4 11 1
v 4 11 1
v 5 11 1
v -5 11 -1
v -4 11 -1
v 4 11 -1
v 5 11 -1
v -5 11 -2
v -4 11 -2
v 4 11 -2
v 5 11 -2
v -5 11 -3
v -4 11 -3
v 4 11 -3
v 5 11 -3
v -1 15 4
v 1 15 4
v -1 15 3
v 1 15 3
v -4 17 6
v 4 17 6
v -5 17 5
v -4 17 5
v 4 17 5
v 5 17 5
v -4 17 4
v 4 17 4
v -5 17 3
v -4 17 3
v 4 17 3
v 5 17 3
v -4 20 4
v 4 20 4
v -5 20 3
v -4 20 3
v 4 20 3
v 5 20 3
v -5 20 -4
v -4 20 -4
v 4 20 -4
v 5 20 -4
v -4 20 -5
v 4 20 -5

# faces
f 3/4/1 2/4/1 1/4/1
f 4/4/1 2/4/1 3/4/1
f 5/3/1 4/3/1 3/3/1
f 6/3/1 4/3/1 5/3/1
f 7/10/1 6/10/1 5/10/1
f 8/10/1 6/10/1 7/10/1
f 9/3/1 8/3/1 7/3/1
f 10/3/1 8/3/1 9/3/1
f 11/3/1 8/3/1 10/3/1
f 12/3/1 8/3/1 11/3/1
f 13/3/1 8/3/1 12/3/1
f 14/3/1 8/3/1 13/3/1
f 15/1/1 10/1/1 9/1/1
f 17/1/1 12/1/1 11/1/1
f 18/1/1 12/1/1 17/1/1
f 19/1/1 14/1/1 13/1/1
f 20/7/1 16/7/1 15/7/1
f 20/1/1 15/1/1 9/1/1
f 21/6/1 17/6/1 16/6/1
f 21/7/1 16/7/1 20/7/1
f 22/1/1 20/1/1 9/1/1
f 22/6/1 21/6/1 20/6/1
f 23/1/1 18/1/1 17/1/1
f 23/6/1 21/6/1 22/6/1
f 23/1/1 19/1/1 18/1/1
f 23/6/1 17/6/1 21/6/1
f 25/1/1 22/1/1 9/1/1
f 25/1/1 23/1/1 22/1/1
f 26/1/1 19/1/1 23/1/1
f 26/1/1 14/1/1 19/1/1
f 26/1/1 23/1/1 25/1/1
f 27/3/1 25/3/1 24/3/1
f 27/3/1 26/3/1 25/3/1
f 28/3/1 26/3/1 27/3/1
f 29/3/1 26/3/1 28/3/1
f 30/10/1 29/10/1 28/10/1
f 31/10/1 29/10/1 30/10/1
f 32/3/1 31/3/1 30/3/1
f 33/3/1 31/3/1 32/3/1
f 36/1/1 35/1/1 34/1/1
f 37/1/1 35/1/1 36/1/1
f 38/1/1 35/1/1 37/1/1
f 39/1/1 35/1/1 38/1/1
f 40/1/1 38/1/1 37/1/1
f 41/2/1 39/2/1 38/2/1
f 41/1/1 38/1/1 40/1/1
f 42/2/1 39/2/1 41/2/1
f 43/10/1 42/10/1 41/10/1
f 44/10/1 42/10/1 43/10/1
f 53/6/1 48/6/1 47/6/1
f 54/6/1 48/6/1 53/6/1
f 55/6/1 48/6/1 54/6/1
f 56/1/1 50/1/1 49/1/1
f 57/1/1 50/1/1 56/1/1
f 58/6/1 46/6/1 45/6/1
f 59/6/1 46/6/1 58/6/1
f 61/7/1 59/7/1 58/7/1
f 64/1/1 61/1/1 60/1/1
f 65/7/1 59/7/1 61/7/1
f 65/1/1 61/1/1 64/1/1
f 66/7/1 59/7/1 65/7/1
f 67/1/1 52/1/1 51/1/1
f 68/1/1 52/1/1 67/1/1
f 69/3/1 63/3/1 62/3/1
f 70/3/1 63/3/1 69/3/1
f 73/3/1 68/3/1 67/3/1
f 74/3/1 68/3/1 73/3/1
f 75/10/1 72/10/1 71/10/1
f 76/10/1 72/10/1 75/10/1
f 77/10/1 74/10/1 73/10/1
f 78/10/1 74/10/1 77/10/1
f 79/3/1 76/3/1 75/3/1
f 80/3/1 76/3/1 79/3/1
f 81/3/1 78/3/1 77/3/1
f 82/3/1 78/3/1 81/3/1
f 87/7/1 86/7/1 85/7/1
f 88/7/1 86/7/1 87/7/1
f 89/1/1 84/1/1 83/1/1
f 90/1/1 84/1/1 89/1/1
f 91/6/1 88/6/1 87/6/1
f 92/6/1 91/6/1 87/6/1
f 93/6/1 91/6/1 92/6/1
f 96/1/1 95/1/1 94/1/1
f 97/1/1 95/1/1 96/1/1
f 98/1/1 95/1/1 97/1/1
f 99/1/1 95/1/1 98/1/1
f 100/1/1 98/1/1 97/1/1
f 101/2/1 99/2/1 98/2/1
f 101/1/1 98/1/1 100/1/1
f 102/2/1 99/2/1 101/2/1
f 103/10/1 102/10/1 101/10/1
f 104/10/1 103/10/1 101/10/1
f 105/10/1 103/10/1 104/10/1
f 108/9/1 107/9/1 106/9/1
f 109/9/1 107/9/1 108/9/1
f 112/1/1 111/1/1 110/1/1
f 113/1/1 111/1/1 112/1/1
f 116/4/1 115/4/1 114/4/1
f 117/4/1 115/4/1 116/4/1
f 120/1/1 119/1/1 118/1/1
f 121/1/1 119/1/1 120/1/1
f 122/4/2 123/4/2 124/4/2
f 124/4/2 123/4/2 125/4/2
f 126/1/2 127/1/2 128/1/2
f 128/1/2 127/1/2 129/1/2
f 130/1/2 131/1/2 132/1/2
f 132/1/2 131/1/2 133/1/2
f 133/1/2 131/1/2 134/1/2
f 134/1/2 131/1/2 135/1/2
f 133/1/2 134/1/2 136/1/2
f 134/2/2 135/2/2 137/2/2
f 136/1/2 134/1/2 137/1/2
f 137/2/2 135/2/2 138/2/2
f 137/10/2 138/10/2 139/10/2
f 137/10/2 139/10/2 140/10/2
f 140/10/2 139/10/2 141/10/2
f 142/9/2 143/9/2 144/9/2
f 144/9/2 143/9/2 145/9/2
f 146/1/2 147/1/2 148/1/2
f 148/1/2 147/1/2 149/1/2
f 152/7/2 153/7/2 154/7/2
f 154/7/2 153/7/2 155/7/2
f 150/1/2 151/1/2 156/1/2
f 156/1/2 151/1/2 157/1/2
f 154/6/2 155/6/2 158/6/2
f 154/6/2 158/6/2 159/6/2
f 159/6/2 158/6/2 160/6/2
f 161/1/2 162/1/2 163/1/2
f 163/1/2 162/1/2 164/1/2
f 164/1/2 162/1/2 165/1/2
f 165/1/2 162/1/2 166/1/2
f 164/1/2 165/1/2 167/1/2
f 165/2/2 166/2/2 168/2/2
f 167/1/2 165/1/2 168/1/2
f 168/2/2 166/2/2 169/2/2
f 168/10/2 169/10/2 170/10/2
f 170/10/2 169/10/2 171/10/2
f 174/6/2 175/6/2 180/6/2
f 180/6/2 175/6/2 181/6/2
f 181/6/2 175/6/2 182/6/2
f 176/1/2 177/1/2 183/1/2
f 183/1/2 177/1/2 184/1/2
f 172/6/2 173/6/2 185/6/2
f 185/6/2 173/6/2 186/6/2
f 185/7/2 186/7/2 188/7/2
f 187/1/2 188/1/2 191/1/2
f 188/7/2 186/7/2 192/7/2
f 191/1/2 188/1/2 192/1/2
f 192/7/2 186/7/2 193/7/2
f 178/1/2 179/1/2 194/1/2
f 194/1/2 179/1/2 195/1/2
f 189/3/2 190/3/2 196/3/2
f 196/3/2 190/3/2 197/3/2
f 194/3/2 195/3/2 200/3/2
f 200/3/2 195/3/2 201/3/2
f 198/10/2 199/10/2 202/10/2
f 202/10/2 199/10/2 203/10/2
f 200/10/2 201/10/2 204/10/2
f 204/10/2 201/10/2 205/10/2
f 202/3/2 203/3/2 206/3/2
f 206/3/2 203/3/2 207/3/2
f 204/3/2 205/3/2 208/3/2
f 208/3/2 205/3/2 209/3/2
f 210/4/2 211/4/2 212/4/2
f 212/4/2 211/4/2 213/4/2
f 212/3/2 213/3/2 214/3/2
f 214/3/2 213/3/2 215/3/2
f 214/10/2 215/10/2 216/10/2
f 216/10/2 215/10/2 217/10/2
f 216/3/2 217/3/2 218/3/2
f 218/3/2 217/3/2 219/3/2
f 219/3/2 217/3/2 220/3/2
f 220/3/2 217/3/2 221/3/2
f 221/3/2 217/3/2 222/3/2
f 222/3/2 217/3/2 223/3/2
f 218/1/2 219/1/2 224/1/2
f 220/1/2 221/1/2 226/1/2
f 226/1/2 221/1/2 227/1/2
f 222/1/2 223/1/2 228/1/2
f 224/7/2 225/7/2 229/7/2
f 218/1/2 224/1/2 229/1/2
f 225/6/2 226/6/2 230/6/2
f 229/7/2 225/7/2 230/7/2
f 218/1/2 229/1/2 231/1/2
f 229/6/2 230/6/2 231/6/2
f 226/1/2 227/1/2 232/1/2
f 231/6/2 230/6/2 232/6/2
f 227/1/2 228/1/2 232/1/2
f 230/6/2 226/6/2 232/6/2
f 218/1/2 231/1/2 234/1/2
f 231/1/2 232/1/2 234/1/2
f 232/1/2 228/1/2 235/1/2
f 228/1/2 223/1/2 235/1/2
f 234/1/2 232/1/2 235/1/2
f 233/3/2 234/3/2 236/3/2
f 234/3/2 235/3/2 236/3/2
f 236/3/2 235/3/2 237/3/2
f 237/3/2 235/3/2 238/3/2
f 237/10/2 238/10/2 239/10/2
f 239/10/2 238/10/2 240/10/2
f 239/3/2 240/3/2 241/3/2
f 241/3/2 240/3/2 242/3/2
f 245/3/3 244/3/3 243/3/3
f 246/3/3 244/3/3 245/3/3
f 249/3/3 248/3/3 247/3/3
f 250/3/3 248/3/3 249/3/3
f 253/3/3 252/3/3 251/3/3
f 254/3/3 252/3/3 253/3/3
f 262/1/3 256/1/3 255/1/3
f 263/1/3 256/1/3 262/1/3
f 264/7/3 261/7/3 260/7/3
f 265/6/3 262/6/3 261/6/3
f 265/7/3 261/7/3 264/7/3
f 266/6/3 262/6/3 265/6/3
f 268/1/3 267/1/3 266/1/3
f 269/1/3 267/1/3 268/1/3
f 270/10/3 258/10/3 257/10/3
f 271/3/3 259/3/3 258/3/3
f 271/10/3 258/10/3 270/10/3
f 272/3/3 259/3/3 271/3/3
f 281/10/3 274/10/3 273/10/3
f 282/3/3 275/3/3 274/3/3
f 282/10/3 274/10/3 281/10/3
f 283/3/3 275/3/3 282/3/3
f 284/6/3 279/6/3 278/6/3
f 285/6/3 279/6/3 284/6/3
f 286/7/3 280/7/3 279/7/3
f 286/6/3 279/6/3 285/6/3
f 287/7/3 280/7/3 286/7/3
f 288/1/3 285/1/3 284/1/3
f 289/1/3 285/1/3 288/1/3
f 290/6/3 286/6/3 285/6/3
f 290/10/3 287/10/3 286/10/3
f 291/10/3 287/10/3 290/10/3
f 292/1/3 277/1/3 276/1/3
f 293/1/3 277/1/3 292/1/3
f 294/1/3 285/1/3 289/1/3
f 294/6/3 289/6/3 288/6/3
f 295/6/3 290/6/3 285/6/3
f 295/1/3 285/1/3 294/1/3
f 296/7/3 291/7/3 290/7/3
f 296/6/3 290/6/3 295/6/3
f 297/7/3 291/7/3 296/7/3
f 301/6/3 294/6/3 288/6/3
f 304/7/3 298/7/3 297/7/3
f 305/7/3 298/7/3 304/7/3
f 306/6/3 301/6/3 288/6/3
f 307/1/3 302/1/3 301/1/3
f 307/6/3 301/6/3 306/6/3
f 308/6/3 303/6/3 302/6/3
f 308/7/3 304/7/3 303/7/3
f 309/7/3 304/7/3 308/7/3
f 310/1/3 307/1/3 306/1/3
f 311/1/3 302/1/3 307/1/3
f 311/1/3 307/1/3 310/1/3
f 311/6/3 308/6/3 302/6/3
f 312/10/3 309/10/3 308/10/3
f 312/6/3 308/6/3 311/6/3
f 313/10/3 309/10/3 312/10/3
f 314/1/3 300/1/3 299/1/3
f 315/1/3 300/1/3 314/1/3
f 316/6/3 311/6/3 310/6/3
f 316/6/3 312/6/3 311/6/3
f 317/7/3 313/7/3 312/7/3
f 317/6/3 312/6/3 316/6/3
f 318/7/3 313/7/3 317/7/3
f 322/10/3 320/10/3 319/10/3
f 323/3/3 321/3/3 320/3/3
f 323/10/3 320/10/3 322/10/3
f 324/3/3 321/3/3 323/3/3
f 333/3/3 329/3/3 328/3/3
f 333/1/3 330/1/3 329/1/3
f 334/1/3 330/1/3 333/1/3
f 335/1/3 330/1/3 334/1/3
f 336/4/3 326/4/3 325/4/3
f 336/3/3 327/3/3 326/3/3
f 337/10/3 328/10/3 327/10/3
f 337/3/3 327/3/3 336/3/3
f 338/3/3 333/3/3 328/3/3
f 338/10/3 328/10/3 337/10/3
f 339/3/3 333/3/3 338/3/3
f 340/4/3 337/4/3 336/4/3
f 340/4/3 336/4/3 325/4/3
f 341/4/3 337/4/3 340/4/3
f 342/4/3 337/4/3 341/4/3
f 343/10/3 338/10/3 337/10/3
f 343/4/3 337/4/3 342/4/3
f 344/4/3 339/4/3 338/4/3
f 344/10/3 338/10/3 343/10/3
f 345/4/3 339/4/3 344/4/3
f 346/4/3 339/4/3 345/4/3
f 347/4/3 339/4/3 346/4/3
f 348/1/3 332/1/3 331/1/3
f 349/1/3 332/1/3 348/1/3
f 350/8/3 343/8/3 342/8/3
f 350/10/3 344/10/3 343/10/3
f 351/9/3 345/9/3 344/9/3
f 351/10/3 344/10/3 350/10/3
f 352/8/3 346/8/3 345/8/3
f 353/9/3 347/9/3 346/9/3
f 353/8/3 346/8/3 352/8/3
f 354/9/3 347/9/3 353/9/3
f 357/8/3 350/8/3 342/8/3
f 357/5/3 351/5/3 350/5/3
f 358/9/3 345/9/3 351/9/3
f 358/5/3 351/5/3 357/5/3
f 359/8/3 352/8/3 345/8/3
f 359/9/3 353/9/3 352/9/3
f 360/9/3 353/9/3 359/9/3
f 363/9/3 342/9/3 341/9/3
f 364/8/3 357/8/3 342/8/3
f 364/9/3 342/9/3 363/9/3
f 365/10/3 358/10/3 357/10/3
f 365/8/3 357/8/3 364/8/3
f 366/9/3 345/9/3 358/9/3
f 366/10/3 358/10/3 365/10/3
f 367/8/3 359/8/3 345/8/3
f 367/9/3 345/9/3 366/9/3
f 367/8/3 360/8/3 359/8/3
f 368/9/3 361/9/3 360/9/3
f 368/8/3 360/8/3 367/8/3
f 369/9/3 361/9/3 368/9/3
f 370/4/3 365/4/3 364/4/3
f 370/4/3 363/4/3 362/4/3
f 370/4/3 364/4/3 363/4/3
f 371/10/3 366/10/3 365/10/3
f 371/4/3 365/4/3 370/4/3
f 372/4/3 367/4/3 366/4/3
f 372/10/3 366/10/3 371/10/3
f 372/4/3 369/4/3 368/4/3
f 372/4/3 368/4/3 367/4/3
f 373/4/3 369/4/3 372/4/3
f 374/1/3 356/1/3 355/1/3
f 375/1/3 356/1/3 374/1/3
f 376/3/3 373/3/3 372/3/3
f 379/4/3 370/4/3 362/4/3
f 380/3/3 371/3/3 370/3/3
f 380/4/3 370/4/3 379/4/3
f 381/10/3 372/10/3 371/10/3
f 381/3/3 371/3/3 380/3/3
f 382/3/3 376/3/3 372/3/3
f 382/10/3 372/10/3 381/10/3
f 383/1/3 378/1/3 377/1/3
f 383/3/3 376/3/3 382/3/3
f 383/1/3 377/1/3 376/1/3
f 384/1/3 378/1/3 383/1/3
f 387/10/3 386/10/3 385/10/3
f 389/10/3 387/10/3 385/10/3
f 389/10/3 388/10/3 387/10/3
f 390/10/3 388/10/3 389/10/3
f 395/6/3 392/6/3 391/6/3
f 396/6/3 392/6/3 395/6/3
f 397/10/3 394/10/3 393/10/3
f 398/10/3 394/10/3 397/10/3
f 399/10/3 397/10/3 393/10/3
f 400/10/3 397/10/3 399/10/3
f 403/1/3 402/1/3 401/1/3
f 404/1/3 402/1/3 403/1/3
f 407/1/3 406/1/3 405/1/3
f 408/1/3 406/1/3 407/1/3
f 411/1/3 410/1/3 409/1/3
f 412/1/3 410/1/3 411/1/3
f 415/4/3 414/4/3 413/4/3
f 416/4/3 414/4/3 415/4/3
f 419/1/3 418/1/3 417/1/3
f 420/1/3 418/1/3 419/1/3
f 421/1/4 422/1/4 423/1/4
f 423/1/4 422/1/4 424/1/4
f 425/1/4 426/1/4 427/1/4
f 427/1/4 426/1/4 428/1/4
f 429/1/4 430/1/4 431/1/4
f 431/1/4 430/1/4 432/1/4
f 433/1/4 434/1/4 435/1/4
f 435/1/4 434/1/4 436/1/4
f 437/1/4 438/1/4 441/1/4
f 438/2/4 439/2/4 442/2/4
f 441/1/4 438/1/4 442/1/4
f 439/10/4 440/10/4 443/10/4
f 442/2/4 439/2/4 443/2/4
f 443/10/4 440/10/4 444/10/4
f 445/1/4 446/1/4 449/1/4
f 446/2/4 447/2/4 450/2/4
f 449/1/4 446/1/4 450/1/4
f 447/10/4 448/10/4 451/10/4
f 450/2/4 447/2/4 451/2/4
f 451/10/4 448/10/4 452/10/4
f 456/3/4 457/3/4 462/3/4
f 457/1/4 458/1/4 462/1/4
f 458/3/4 459/3/4 463/3/4
f 462/1/4 458/1/4 463/1/4
f 459/10/4 460/10/4 464/10/4
f 463/3/4 459/3/4 464/3/4
f 460/3/4 461/3/4 465/3/4
f 464/10/4 460/10/4 465/10/4
f 465/3/4 461/3/4 466/3/4
f 456/3/4 462/3/4 467/3/4
f 456/3/4 467/3/4 469/3/4
f 467/1/4 468/1/4 469/1/4
f 469/1/4 468/1/4 470/1/4
f 456/3/4 469/3/4 471/3/4
f 456/3/4 471/3/4 473/3/4
f 471/1/4 472/1/4 473/1/4
f 473/1/4 472/1/4 474/1/4
f 456/3/4 473/3/4 475/3/4
f 453/4/4 454/4/4 480/4/4
f 454/3/4 455/3/4 481/3/4
f 480/4/4 454/4/4 481/4/4
f 455/10/4 456/10/4 482/10/4
f 481/3/4 455/3/4 482/3/4
f 456/3/4 475/3/4 483/3/4
f 482/10/4 456/10/4 483/10/4
f 475/1/4 476/1/4 484/1/4
f 483/3/4 475/3/4 484/3/4
f 476/3/4 477/3/4 485/3/4
f 484/1/4 476/1/4 485/1/4
f 477/10/4 478/10/4 486/10/4
f 485/3/4 477/3/4 486/3/4
f 478/3/4 479/3/4 487/3/4
f 486/10/4 478/10/4 487/10/4
f 487/3/4 479/3/4 488/3/4
f 489/1/4 490/1/4 494/1/4
f 494/1/4 490/1/4 495/1/4
f 495/1/4 490/1/4 497/1/4
f 496/1/4 497/1/4 498/1/4
f 497/1/4 490/1/4 499/1/4
f 498/1/4 497/1/4 499/1/4
f 499/1/4 490/1/4 501/1/4
f 500/1/4 501/1/4 502/1/4
f 490/3/4 491/3/4 503/3/4
f 502/1/4 501/1/4 503/1/4
f 501/1/4 490/1/4 503/1/4
f 491/10/4 492/10/4 504/10/4
f 503/3/4 491/3/4 504/3/4
f 492/3/4 493/3/4 505/3/4
f 504/10/4 492/10/4 505/10/4
f 505/3/4 493/3/4 506/3/4
f 511/1/5 508/1/5 507/1/5
f 512/1/5 508/1/5 511/1/5
f 513/1/5 510/1/5 509/1/5
f 514/1/5 510/1/5 513/1/5
f 519/4/5 516/4/5 515/4/5
f 520/4/5 516/4/5 519/4/5
f 521/4/5 518/4/5 517/4/5
f 522/4/5 518/4/5 521/4/5
f 523/4/5 519/4/5 515/4/5
f 526/4/5 518/4/5 522/4/5
f 527/4/5 525/4/5 524/4/5
f 527/4/5 526/4/5 525/4/5
f 527/4/5 523/4/5 515/4/5
f 527/4/5 524/4/5 523/4/5
f 528/4/5 518/4/5 526/4/5
f 528/4/5 526/4/5 527/4/5
f 531/9/5 530/9/5 529/9/5
f 532/9/5 530/9/5 531/9/5
f 533/9/5 530/9/5 532/9/5
f 534/9/5 530/9/5 533/9/5
f 535/10/5 533/10/5 532/10/5
f 536/10/5 533/10/5 535/10/5
f 543/6/5 538/6/5 537/6/5
f 544/1/5 539/1/5 538/1/5
f 544/6/5 538/6/5 543/6/5
f 545/6/5 540/6/5 539/6/5
f 545/1/5 539/1/5 544/1/5
f 546/6/5 540/6/5 545/6/5
f 547/6/5 540/6/5 546/6/5
f 548/1/5 541/1/5 540/1/5
f 548/6/5 540/6/5 547/6/5
f 549/6/5 542/6/5 541/6/5
f 549/1/5 541/1/5 548/1/5
f 550/6/5 542/6/5 549/6/5
f 551/6/5 547/6/5 546/6/5
f 552/6/5 547/6/5 551/6/5
f 559/1/5 554/1/5 553/1/5
f 560/1/5 554/1/5 559/1/5
f 561/1/5 556/1/5 555/1/5
f 562/1/5 556/1/5 561/1/5
f 563/1/5 558/1/5 557/1/5
f 564/1/5 558/1/5 563/1/5
f 567/7/5 566/7/5 565/7/5
f 568/7/5 566/7/5 567/7/5
f 573/7/5 570/7/5 569/7/5
f 574/7/5 570/7/5 573/7/5
f 575/7/5 572/7/5 571/7/5
f 576/7/5 572/7/5 575/7/5
f 577/6/5 574/6/5 573/6/5
f 578/6/5 574/6/5 577/6/5
f 579/6/5 576/6/5 575/6/5
f 580/6/5 576/6/5 579/6/5
f 585/1/5 582/1/5 581/1/5
f 586/1/5 582/1/5 585/1/5
f 587/1/5 584/1/5 583/1/5
f 588/1/5 584/1/5 587/1/5
f 593/1/5 590/1/5 589/1/5
f 594/1/5 590/1/5 593/1/5
f 595/1/5 592/1/5 591/1/5
f 596/1/5 592/1/5 595/1/5
f 601/1/5 598/1/5 597/1/5
f 602/1/5 598/1/5 601/1/5
f 603/1/5 598/1/5 602/1/5
f 604/1/5 598/1/5 603/1/5
f 605/1/5 600/1/5 599/1/5
f 606/1/5 600/1/5 605/1/5
f 607/1/5 600/1/5 606/1/5
f 608/1/5 600/1/5 607/1/5
f 612/3/5 610/3/5 609/3/5
f 613/3/5 610/3/5 612/3/5
f 615/3/5 612/3/5 611/3/5
f 615/3/5 614/3/5 613/3/5
f 615/3/5 613/3/5 612/3/5
f 616/3/5 614/3/5 615/3/5
f 617/3/5 614/3/5 616/3/5
f 618/3/5 614/3/5 617/3/5
f 619/3/5 615/3/5 611/3/5
f 620/3/5 617/3/5 616/3/5
f 621/3/5 617/3/5 620/3/5
f 622/3/5 614/3/5 618/3/5
f 623/3/5 619/3/5 611/3/5
f 624/3/5 619/3/5 623/3/5
f 625/3/5 614/3/5 622/3/5
f 626/3/5 614/3/5 625/3/5
f 627/1/6 628/1/6 631/1/6
f 631/1/6 628/1/6 632/1/6
f 629/1/6 630/1/6 633/1/6
f 633/1/6 630/1/6 634/1/6
f 635/1/6 636/1/6 639/1/6
f 639/1/6 636/1/6 640/1/6
f 637/1/6 638/1/6 641/1/6
f 641/1/6 638/1/6 642/1/6
f 643/9/6 644/9/6 645/9/6
f 645/9/6 644/9/6 646/9/6
f 647/3/6 648/3/6 651/3/6
f 651/3/6 648/3/6 652/3/6
f 649/3/6 650/3/6 653/3/6
f 653/3/6 650/3/6 654/3/6
f 655/3/6 656/3/6 659/3/6
f 659/3/6 656/3/6 660/3/6
f 657/3/6 658/3/6 661/3/6
f 661/3/6 658/3/6 662/3/6
f 663/6/6 664/6/6 665/6/6
f 665/6/6 664/6/6 666/6/6
f 667/3/6 668/3/6 670/3/6
f 670/3/6 668/3/6 671/3/6
f 669/3/6 670/3/6 673/3/6
f 671/3/6 672/3/6 673/3/6
f 670/3/6 671/3/6 673/3/6
f 673/3/6 672/3/6 674/3/6
f 669/3/6 673/3/6 675/3/6
f 675/3/6 673/3/6 676/3/6
f 674/3/6 672/3/6 677/3/6
f 677/3/6 672/3/6 678/3/6
f 679/3/6 680/3/6 682/3/6
f 682/3/6 680/3/6 683/3/6
f 681/3/6 682/3/6 685/3/6
f 683/3/6 684/3/6 685/3/6
f 682/3/6 683/3/6 685/3/6
f 685/3/6 684/3/6 686/3/6
f 686/3/6 684/3/6 687/3/6
f 687/3/6 684/3/6 688/3/6
f 686/3/6 687/3/6 689/3/6
f 689/3/6 687/3/6 690/3/6
