# MagicaVoxel @ Ephtracy

# group
g counter_R

# material
mtllib counter_R.mtl
usemtl palette

# normals
vn -1 0 0
vn 1 0 0
vn 0 0 1
vn 0 0 -1
vn 0 -1 0
vn 0 1 0

# texcoords
vt 0.0917969 0.5
vt 0.908203 0.5
vt 0.912109 0.5
vt 0.919922 0.5
vt 0.923828 0.5

# verts
v -10 0 5.5
v -10 0 -5.5
v -10 1 5.5
v -10 1 -5.5
v -9 0 6.5
v -9 0 5.5
v -9 0 -5.5
v -9 0 -6.5
v -9 1 6.5
v -9 1 5.5
v -9 1 -5.5
v -9 1 -6.5
v 9 0 6.5
v 9 0 5.5
v 9 0 -5.5
v 9 0 -6.5
v 9 1 6.5
v 9 1 5.5
v 9 1 -5.5
v 9 1 -6.5
v 10 0 5.5
v 10 0 -5.5
v 10 1 5.5
v 10 1 -5.5
v -9 0 6.5
v -9 1 6.5
v 9 0 6.5
v 9 1 6.5
v -10 0 5.5
v -10 1 5.5
v -9 0 5.5
v -9 1 5.5
v 9 0 5.5
v 9 1 5.5
v 10 0 5.5
v 10 1 5.5
v -10 0 -5.5
v -10 1 -5.5
v -9 0 -5.5
v -9 1 -5.5
v 9 0 -5.5
v 9 1 -5.5
v 10 0 -5.5
v 10 1 -5.5
v -9 0 -6.5
v -9 1 -6.5
v 9 0 -6.5
v 9 1 -6.5
v -9 0 6.5
v 9 0 6.5
v -10 0 5.5
v -9 0 5.5
v -8 0 5.5
v 7 0 5.5
v 9 0 5.5
v 10 0 5.5
v -8 0 4.5
v -7 0 4.5
v -7 0 3.5
v 7 0 3.5
v 9 0 3.5
v -9 0 -3.5
v -7 0 -3.5
v 7 0 -3.5
v 8 0 -3.5
v 8 0 -4.5
v 9 0 -4.5
v -10 0 -5.5
v -9 0 -5.5
v -7 0 -5.5
v 9 0 -5.5
v 10 0 -5.5
v -9 0 -6.5
v 9 0 -6.5
v -9 1 6.5
v 9 1 6.5
v -10 1 5.5
v -9 1 5.5
v -8 1 5.5
v 7 1 5.5
v 9 1 5.5
v 10 1 5.5
v -8 1 4.5
v -7 1 4.5
v -7 1 3.5
v 7 1 3.5
v 9 1 3.5
v -9 1 -3.5
v -7 1 -3.5
v 7 1 -3.5
v 8 1 -3.5
v 8 1 -4.5
v 9 1 -4.5
v -10 1 -5.5
v -9 1 -5.5
v -7 1 -5.5
v 9 1 -5.5
v 10 1 -5.5
v -9 1 -6.5
v 9 1 -6.5

# faces
f 3/2/1 2/2/1 1/2/1
f 4/2/1 2/2/1 3/2/1
f 9/5/1 6/5/1 5/5/1
f 10/5/1 6/5/1 9/5/1
f 11/2/1 8/2/1 7/2/1
f 12/2/1 8/2/1 11/2/1
f 13/5/2 14/5/2 17/5/2
f 17/5/2 14/5/2 18/5/2
f 15/2/2 16/2/2 19/2/2
f 19/2/2 16/2/2 20/2/2
f 21/5/2 22/5/2 23/5/2
f 23/5/2 22/5/2 24/5/2
f 27/5/3 26/5/3 25/5/3
f 28/5/3 26/5/3 27/5/3
f 31/2/3 30/2/3 29/2/3
f 32/2/3 30/2/3 31/2/3
f 35/5/3 34/5/3 33/5/3
f 36/5/3 34/5/3 35/5/3
f 37/2/4 38/2/4 39/2/4
f 39/2/4 38/2/4 40/2/4
f 41/5/4 42/5/4 43/5/4
f 43/5/4 42/5/4 44/5/4
f 45/2/4 46/2/4 47/2/4
f 47/2/4 46/2/4 48/2/4
f 52/5/5 50/5/5 49/5/5
f 53/5/5 50/5/5 52/5/5
f 54/5/5 50/5/5 53/5/5
f 55/5/5 50/5/5 54/5/5
f 57/3/5 53/3/5 52/3/5
f 57/4/5 54/4/5 53/4/5
f 58/4/5 54/4/5 57/4/5
f 59/3/5 58/3/5 57/3/5
f 59/4/5 54/4/5 58/4/5
f 60/5/5 56/5/5 55/5/5
f 60/4/5 54/4/5 59/4/5
f 60/5/5 55/5/5 54/5/5
f 61/5/5 56/5/5 60/5/5
f 62/2/5 52/2/5 51/2/5
f 62/3/5 59/3/5 57/3/5
f 62/3/5 57/3/5 52/3/5
f 63/1/5 60/1/5 59/1/5
f 63/3/5 59/3/5 62/3/5
f 64/4/5 61/4/5 60/4/5
f 64/1/5 60/1/5 63/1/5
f 65/4/5 61/4/5 64/4/5
f 66/3/5 64/3/5 63/3/5
f 66/4/5 61/4/5 65/4/5
f 66/3/5 65/3/5 64/3/5
f 67/5/5 56/5/5 61/5/5
f 67/4/5 61/4/5 66/4/5
f 68/2/5 63/2/5 62/2/5
f 68/2/5 62/2/5 51/2/5
f 69/2/5 63/2/5 68/2/5
f 70/3/5 66/3/5 63/3/5
f 70/2/5 63/2/5 69/2/5
f 70/3/5 67/3/5 66/3/5
f 71/5/5 56/5/5 67/5/5
f 71/3/5 67/3/5 70/3/5
f 72/5/5 56/5/5 71/5/5
f 73/2/5 70/2/5 69/2/5
f 73/2/5 71/2/5 70/2/5
f 74/2/5 71/2/5 73/2/5
f 75/5/6 76/5/6 78/5/6
f 78/5/6 76/5/6 79/5/6
f 79/5/6 76/5/6 80/5/6
f 80/5/6 76/5/6 81/5/6
f 78/3/6 79/3/6 83/3/6
f 79/4/6 80/4/6 83/4/6
f 83/4/6 80/4/6 84/4/6
f 83/3/6 84/3/6 85/3/6
f 84/4/6 80/4/6 85/4/6
f 81/5/6 82/5/6 86/5/6
f 85/4/6 80/4/6 86/4/6
f 80/5/6 81/5/6 86/5/6
f 86/5/6 82/5/6 87/5/6
f 77/2/6 78/2/6 88/2/6
f 83/3/6 85/3/6 88/3/6
f 78/3/6 83/3/6 88/3/6
f 85/1/6 86/1/6 89/1/6
f 88/3/6 85/3/6 89/3/6
f 86/4/6 87/4/6 90/4/6
f 89/1/6 86/1/6 90/1/6
f 90/4/6 87/4/6 91/4/6
f 89/3/6 90/3/6 92/3/6
f 91/4/6 87/4/6 92/4/6
f 90/3/6 91/3/6 92/3/6
f 87/5/6 82/5/6 93/5/6
f 92/4/6 87/4/6 93/4/6
f 88/2/6 89/2/6 94/2/6
f 77/2/6 88/2/6 94/2/6
f 94/2/6 89/2/6 95/2/6
f 89/3/6 92/3/6 96/3/6
f 95/2/6 89/2/6 96/2/6
f 92/3/6 93/3/6 96/3/6
f 93/5/6 82/5/6 97/5/6
f 96/3/6 93/3/6 97/3/6
f 97/5/6 82/5/6 98/5/6
f 95/2/6 96/2/6 99/2/6
f 96/2/6 97/2/6 99/2/6
f 99/2/6 97/2/6 100/2/6
