# MagicaVoxel @ Ephtracy

# group
g soldier_arm

# material
mtllib soldier_arm.mtl
usemtl palette

# normals
vn -1 0 0
vn 1 0 0
vn 0 0 1
vn 0 0 -1
vn 0 -1 0
vn 0 1 0

# texcoords
vt 0.0917969 0.5
vt 0.103516 0.5
vt 0.111328 0.5
vt 0.162109 0.5
vt 0.166016 0.5
vt 0.986328 0.5

# verts
v -7 6 6
v -7 6 3
v -7 6 2
v -7 6 -2
v -7 9 6
v -7 9 3
v -7 9 2
v -7 9 1
v -7 9 -2
v -7 11 1
v -7 11 -2
v -5 8 5
v -5 8 4
v -5 9 5
v -5 9 4
v 4 6 4
v 4 6 3
v 4 6 2
v 4 6 -2
v 4 8 5
v 4 8 4
v 4 8 3
v 4 9 5
v 4 9 3
v 4 9 2
v 4 9 1
v 4 9 -2
v 4 11 1
v 4 11 -2
v 6 6 6
v 6 6 4
v 6 9 6
v 6 9 4
v -6 6 6
v -6 6 4
v -6 9 6
v -6 9 4
v -4 6 4
v -4 6 3
v -4 6 2
v -4 6 -2
v -4 8 5
v -4 8 4
v -4 8 3
v -4 9 5
v -4 9 3
v -4 9 2
v -4 9 1
v -4 9 -2
v -4 11 1
v -4 11 -2
v 5 8 5
v 5 8 4
v 5 9 5
v 5 9 4
v 7 6 6
v 7 6 3
v 7 6 2
v 7 6 -2
v 7 9 6
v 7 9 3
v 7 9 2
v 7 9 1
v 7 9 -2
v 7 11 1
v 7 11 -2
v -7 6 6
v -7 9 6
v -6 6 6
v -6 9 6
v 6 6 6
v 6 9 6
v 7 6 6
v 7 9 6
v -5 8 5
v -5 9 5
v -4 8 5
v -4 9 5
v 4 8 5
v 4 9 5
v 5 8 5
v 5 9 5
v -6 6 4
v -6 9 4
v -5 8 4
v -5 9 4
v -4 6 4
v -4 8 4
v 4 6 4
v 4 8 4
v 5 8 4
v 5 9 4
v 6 6 4
v 6 9 4
v -7 9 1
v -7 11 1
v -6 9 1
v -6 10 1
v -5 10 1
v -5 11 1
v -4 9 1
v -4 11 1
v 4 9 1
v 4 11 1
v 5 10 1
v 5 11 1
v 6 9 1
v 6 10 1
v 7 9 1
v 7 11 1
v -7 6 -2
v -7 9 -2
v -7 11 -2
v -6 9 -2
v -6 10 -2
v -5 10 -2
v -5 11 -2
v -4 6 -2
v -4 9 -2
v -4 11 -2
v 4 6 -2
v 4 9 -2
v 4 11 -2
v 5 10 -2
v 5 11 -2
v 6 9 -2
v 6 10 -2
v 7 6 -2
v 7 9 -2
v 7 11 -2
v -7 6 6
v -6 6 6
v 6 6 6
v 7 6 6
v -6 6 4
v -4 6 4
v 4 6 4
v 6 6 4
v -7 6 3
v -6 6 3
v -4 6 3
v 4 6 3
v 6 6 3
v 7 6 3
v -7 6 2
v -4 6 2
v 4 6 2
v 7 6 2
v -7 6 -2
v -4 6 -2
v 4 6 -2
v 7 6 -2
v -5 8 5
v -4 8 5
v 4 8 5
v 5 8 5
v -5 8 4
v -4 8 4
v 4 8 4
v 5 8 4
v -7 9 6
v -6 9 6
v 6 9 6
v 7 9 6
v -5 9 5
v -4 9 5
v 4 9 5
v 5 9 5
v -6 9 4
v -5 9 4
v 5 9 4
v 6 9 4
v -7 9 3
v -6 9 3
v -5 9 3
v -4 9 3
v 4 9 3
v 5 9 3
v 6 9 3
v 7 9 3
v -7 9 2
v -4 9 2
v 4 9 2
v 7 9 2
v -7 9 1
v -6 9 1
v -4 9 1
v 4 9 1
v 6 9 1
v 7 9 1
v -7 11 1
v -5 11 1
v -4 11 1
v 4 11 1
v 5 11 1
v 7 11 1
v -7 11 -2
v -5 11 -2
v -4 11 -2
v 4 11 -2
v 5 11 -2
v 7 11 -2

# faces
f 5/4/1 2/4/1 1/4/1
f 6/6/1 3/6/1 2/6/1
f 6/4/1 2/4/1 5/4/1
f 7/1/1 4/1/1 3/1/1
f 7/6/1 3/6/1 6/6/1
f 8/1/1 4/1/1 7/1/1
f 9/1/1 4/1/1 8/1/1
f 10/2/1 9/2/1 8/2/1
f 11/2/1 9/2/1 10/2/1
f 14/4/1 13/4/1 12/4/1
f 15/4/1 13/4/1 14/4/1
f 21/5/1 17/5/1 16/5/1
f 22/6/1 18/6/1 17/6/1
f 22/5/1 17/5/1 21/5/1
f 23/4/1 21/4/1 20/4/1
f 23/4/1 22/4/1 21/4/1
f 24/6/1 18/6/1 22/6/1
f 24/4/1 22/4/1 23/4/1
f 25/1/1 19/1/1 18/1/1
f 25/6/1 18/6/1 24/6/1
f 26/1/1 19/1/1 25/1/1
f 27/1/1 19/1/1 26/1/1
f 28/3/1 27/3/1 26/3/1
f 29/3/1 27/3/1 28/3/1
f 32/4/1 31/4/1 30/4/1
f 33/4/1 31/4/1 32/4/1
f 34/4/2 35/4/2 36/4/2
f 36/4/2 35/4/2 37/4/2
f 38/5/2 39/5/2 43/5/2
f 39/6/2 40/6/2 44/6/2
f 43/5/2 39/5/2 44/5/2
f 42/4/2 43/4/2 45/4/2
f 43/4/2 44/4/2 45/4/2
f 44/6/2 40/6/2 46/6/2
f 45/4/2 44/4/2 46/4/2
f 40/1/2 41/1/2 47/1/2
f 46/6/2 40/6/2 47/6/2
f 47/1/2 41/1/2 48/1/2
f 48/1/2 41/1/2 49/1/2
f 48/3/2 49/3/2 50/3/2
f 50/3/2 49/3/2 51/3/2
f 52/4/2 53/4/2 54/4/2
f 54/4/2 53/4/2 55/4/2
f 56/4/2 57/4/2 60/4/2
f 57/6/2 58/6/2 61/6/2
f 60/4/2 57/4/2 61/4/2
f 58/1/2 59/1/2 62/1/2
f 61/6/2 58/6/2 62/6/2
f 62/1/2 59/1/2 63/1/2
f 63/1/2 59/1/2 64/1/2
f 63/2/2 64/2/2 65/2/2
f 65/2/2 64/2/2 66/2/2
f 69/4/3 68/4/3 67/4/3
f 70/4/3 68/4/3 69/4/3
f 73/4/3 72/4/3 71/4/3
f 74/4/3 72/4/3 73/4/3
f 77/4/3 76/4/3 75/4/3
f 78/4/3 76/4/3 77/4/3
f 81/4/3 80/4/3 79/4/3
f 82/4/3 80/4/3 81/4/3
f 85/5/3 84/5/3 83/5/3
f 86/5/3 84/5/3 85/5/3
f 87/5/3 85/5/3 83/5/3
f 88/5/3 85/5/3 87/5/3
f 91/5/3 90/5/3 89/5/3
f 93/5/3 91/5/3 89/5/3
f 93/5/3 92/5/3 91/5/3
f 94/5/3 92/5/3 93/5/3
f 97/2/3 96/2/3 95/2/3
f 98/2/3 96/2/3 97/2/3
f 99/3/3 98/3/3 97/3/3
f 99/2/3 96/2/3 98/2/3
f 100/2/3 96/2/3 99/2/3
f 101/3/3 99/3/3 97/3/3
f 101/3/3 100/3/3 99/3/3
f 102/3/3 100/3/3 101/3/3
f 105/3/3 104/3/3 103/3/3
f 106/3/3 104/3/3 105/3/3
f 107/3/3 105/3/3 103/3/3
f 108/2/3 106/2/3 105/2/3
f 108/3/3 105/3/3 107/3/3
f 109/2/3 108/2/3 107/2/3
f 110/2/3 106/2/3 108/2/3
f 110/2/3 108/2/3 109/2/3
f 111/1/4 112/1/4 114/1/4
f 112/2/4 113/2/4 114/2/4
f 114/2/4 113/2/4 115/2/4
f 114/3/4 115/3/4 116/3/4
f 115/2/4 113/2/4 116/2/4
f 116/2/4 113/2/4 117/2/4
f 111/1/4 114/1/4 118/1/4
f 114/3/4 116/3/4 119/3/4
f 118/1/4 114/1/4 119/1/4
f 116/3/4 117/3/4 119/3/4
f 119/3/4 117/3/4 120/3/4
f 122/3/4 123/3/4 124/3/4
f 124/3/4 123/3/4 125/3/4
f 121/1/4 122/1/4 126/1/4
f 122/3/4 124/3/4 126/3/4
f 124/2/4 125/2/4 127/2/4
f 126/3/4 124/3/4 127/3/4
f 121/1/4 126/1/4 128/1/4
f 126/2/4 127/2/4 129/2/4
f 128/1/4 126/1/4 129/1/4
f 127/2/4 125/2/4 130/2/4
f 129/2/4 127/2/4 130/2/4
f 135/4/5 132/4/5 131/4/5
f 138/4/5 134/4/5 133/4/5
f 139/4/5 135/4/5 131/4/5
f 140/5/5 136/5/5 135/5/5
f 140/4/5 135/4/5 139/4/5
f 141/5/5 136/5/5 140/5/5
f 142/5/5 138/5/5 137/5/5
f 143/4/5 134/4/5 138/4/5
f 143/5/5 138/5/5 142/5/5
f 144/4/5 134/4/5 143/4/5
f 145/6/5 141/6/5 140/6/5
f 145/6/5 140/6/5 139/6/5
f 146/6/5 141/6/5 145/6/5
f 147/6/5 144/6/5 143/6/5
f 147/6/5 143/6/5 142/6/5
f 148/6/5 144/6/5 147/6/5
f 149/1/5 146/1/5 145/1/5
f 150/1/5 146/1/5 149/1/5
f 151/1/5 148/1/5 147/1/5
f 152/1/5 148/1/5 151/1/5
f 157/4/5 154/4/5 153/4/5
f 158/4/5 154/4/5 157/4/5
f 159/4/5 156/4/5 155/4/5
f 160/4/5 156/4/5 159/4/5
f 161/4/6 162/4/6 169/4/6
f 165/4/6 166/4/6 170/4/6
f 167/4/6 168/4/6 171/4/6
f 163/4/6 164/4/6 172/4/6
f 161/4/6 169/4/6 173/4/6
f 169/5/6 170/5/6 174/5/6
f 173/4/6 169/4/6 174/4/6
f 170/4/6 166/4/6 175/4/6
f 174/5/6 170/5/6 175/5/6
f 175/4/6 166/4/6 176/4/6
f 167/4/6 171/4/6 177/4/6
f 171/5/6 172/5/6 178/5/6
f 177/4/6 171/4/6 178/4/6
f 172/4/6 164/4/6 179/4/6
f 178/5/6 172/5/6 179/5/6
f 179/4/6 164/4/6 180/4/6
f 175/6/6 176/6/6 181/6/6
f 173/6/6 174/6/6 181/6/6
f 174/6/6 175/6/6 181/6/6
f 181/6/6 176/6/6 182/6/6
f 179/6/6 180/6/6 183/6/6
f 177/6/6 178/6/6 183/6/6
f 178/6/6 179/6/6 183/6/6
f 183/6/6 180/6/6 184/6/6
f 181/1/6 182/1/6 185/1/6
f 185/1/6 182/1/6 186/1/6
f 186/1/6 182/1/6 187/1/6
f 183/1/6 184/1/6 188/1/6
f 188/1/6 184/1/6 189/1/6
f 189/1/6 184/1/6 190/1/6
f 191/2/6 192/2/6 197/2/6
f 192/3/6 193/3/6 198/3/6
f 197/2/6 192/2/6 198/2/6
f 198/3/6 193/3/6 199/3/6
f 194/3/6 195/3/6 200/3/6
f 195/2/6 196/2/6 201/2/6
f 200/3/6 195/3/6 201/3/6
f 201/2/6 196/2/6 202/2/6
