# MagicaVoxel @ Ephtracy

# group
g votebox

# material
mtllib votebox.mtl
usemtl palette

# normals
vn -1 0 0
vn 1 0 0
vn 0 0 1
vn 0 0 -1
vn 0 -1 0
vn 0 1 0

# texcoords
vt 0.134766 0.5
vt 0.138672 0.5
vt 0.146484 0.5

# verts
v -9.5 0 8
v -9.5 0 -8
v -9.5 1 8
v -9.5 1 -8
v -9.5 3 8
v -9.5 3 -8
v -9.5 5 8
v -9.5 5 -8
v -9.5 16 8
v -9.5 16 -8
v -9.5 18 8
v -9.5 18 -8
v -9.5 20 8
v -9.5 20 -8
v -6.5 10 8
v -6.5 10 7
v -6.5 14 8
v -6.5 14 7
v -5.5 7 8
v -5.5 7 7
v -5.5 8 8
v -5.5 8 7
v -4.5 8 8
v -4.5 8 7
v -4.5 14 8
v -4.5 14 7
v -2.5 9 8
v -2.5 9 7
v -2.5 12 8
v -2.5 12 7
v -0.5 7 8
v -0.5 7 7
v -0.5 14 8
v -0.5 14 7
v 2.5 7 8
v 2.5 7 7
v 2.5 12 8
v 2.5 12 7
v 3.5 0 8
v 3.5 0 -8
v 3.5 1 8
v 3.5 1 -8
v 3.5 12 8
v 3.5 12 7
v 3.5 14 8
v 3.5 14 7
v 5.5 9 8
v 5.5 9 7
v 5.5 10 8
v 5.5 10 7
v 5.5 11 8
v 5.5 11 7
v 5.5 12 8
v 5.5 12 7
v 5.5 18 1
v 5.5 18 -1
v 5.5 20 1
v 5.5 20 -1
v 7.5 7 8
v 7.5 7 7
v 7.5 9 8
v 7.5 9 7
v 7.5 10 8
v 7.5 10 7
v 7.5 11 8
v 7.5 11 7
v 7.5 12 8
v 7.5 12 7
v 7.5 14 8
v 7.5 14 7
v -7.5 8 8
v -7.5 8 7
v -7.5 14 8
v -7.5 14 7
v -6.5 7 8
v -6.5 7 7
v -6.5 8 8
v -6.5 8 7
v -5.5 10 8
v -5.5 10 7
v -5.5 14 8
v -5.5 14 7
v -5.5 18 1
v -5.5 18 -1
v -5.5 20 1
v -5.5 20 -1
v -3.5 0 8
v -3.5 0 -8
v -3.5 1 8
v -3.5 1 -8
v -3.5 7 8
v -3.5 7 7
v -3.5 14 8
v -3.5 14 7
v -1.5 9 8
v -1.5 9 7
v -1.5 12 8
v -1.5 12 7
v 0.5 12 8
v 0.5 12 7
v 0.5 14 8
v 0.5 14 7
v 1.5 7 8
v 1.5 7 7
v 1.5 12 8
v 1.5 12 7
v 4.5 7 8
v 4.5 7 7
v 4.5 14 8
v 4.5 14 7
v 9.5 0 8
v 9.5 0 -8
v 9.5 1 8
v 9.5 1 -8
v 9.5 3 8
v 9.5 3 -8
v 9.5 5 8
v 9.5 5 -8
v 9.5 16 8
v 9.5 16 -8
v 9.5 18 8
v 9.5 18 -8
v 9.5 20 8
v 9.5 20 -8
v -9.5 0 8
v -9.5 1 8
v -9.5 3 8
v -9.5 5 8
v -9.5 16 8
v -9.5 18 8
v -9.5 20 8
v -8.5 6 8
v -8.5 15 8
v -7.5 8 8
v -7.5 14 8
v -6.5 7 8
v -6.5 8 8
v -6.5 10 8
v -6.5 14 8
v -5.5 7 8
v -5.5 8 8
v -5.5 10 8
v -5.5 14 8
v -4.5 8 8
v -4.5 14 8
v -3.5 0 8
v -3.5 1 8
v -3.5 2 8
v -3.5 7 8
v -3.5 14 8
v -2.5 9 8
v -2.5 12 8
v -1.5 9 8
v -1.5 12 8
v -0.5 7 8
v -0.5 14 8
v 0.5 12 8
v 0.5 14 8
v 1.5 7 8
v 1.5 12 8
v 2.5 7 8
v 2.5 12 8
v 3.5 0 8
v 3.5 1 8
v 3.5 2 8
v 3.5 12 8
v 3.5 14 8
v 4.5 7 8
v 4.5 14 8
v 5.5 9 8
v 5.5 10 8
v 5.5 11 8
v 5.5 12 8
v 7.5 7 8
v 7.5 9 8
v 7.5 10 8
v 7.5 11 8
v 7.5 12 8
v 7.5 14 8
v 8.5 6 8
v 8.5 15 8
v 9.5 0 8
v 9.5 1 8
v 9.5 3 8
v 9.5 5 8
v 9.5 16 8
v 9.5 18 8
v 9.5 20 8
v -7.5 8 7
v -7.5 14 7
v -6.5 7 7
v -6.5 8 7
v -6.5 10 7
v -6.5 14 7
v -5.5 7 7
v -5.5 8 7
v -5.5 10 7
v -5.5 14 7
v -4.5 8 7
v -4.5 14 7
v -3.5 7 7
v -3.5 14 7
v -2.5 9 7
v -2.5 12 7
v -1.5 9 7
v -1.5 12 7
v -0.5 7 7
v -0.5 14 7
v 0.5 12 7
v 0.5 14 7
v 1.5 7 7
v 1.5 12 7
v 2.5 7 7
v 2.5 12 7
v 3.5 12 7
v 3.5 14 7
v 4.5 7 7
v 4.5 14 7
v 5.5 9 7
v 5.5 10 7
v 5.5 11 7
v 5.5 12 7
v 7.5 7 7
v 7.5 9 7
v 7.5 10 7
v 7.5 11 7
v 7.5 12 7
v 7.5 14 7
v -5.5 18 -1
v -5.5 20 -1
v 5.5 18 -1
v 5.5 20 -1
v -5.5 18 1
v -5.5 20 1
v 5.5 18 1
v 5.5 20 1
v -9.5 0 -8
v -9.5 1 -8
v -9.5 3 -8
v -9.5 5 -8
v -9.5 16 -8
v -9.5 18 -8
v -9.5 20 -8
v -3.5 0 -8
v -3.5 1 -8
v -3.5 2 -8
v 3.5 0 -8
v 3.5 1 -8
v 3.5 2 -8
v 9.5 0 -8
v 9.5 1 -8
v 9.5 3 -8
v 9.5 5 -8
v 9.5 16 -8
v 9.5 18 -8
v 9.5 20 -8
v -9.5 0 8
v -3.5 0 8
v 3.5 0 8
v 9.5 0 8
v -9.5 0 -8
v -3.5 0 -8
v 3.5 0 -8
v 9.5 0 -8
v -3.5 1 8
v 3.5 1 8
v -3.5 1 -8
v 3.5 1 -8
v -2.5 9 8
v -1.5 9 8
v 5.5 9 8
v 7.5 9 8
v -2.5 9 7
v -1.5 9 7
v 5.5 9 7
v 7.5 9 7
v -6.5 10 8
v -5.5 10 8
v -6.5 10 7
v -5.5 10 7
v 5.5 11 8
v 7.5 11 8
v 5.5 11 7
v 7.5 11 7
v -7.5 14 8
v -6.5 14 8
v -5.5 14 8
v -4.5 14 8
v -3.5 14 8
v -0.5 14 8
v 0.5 14 8
v 3.5 14 8
v 4.5 14 8
v 7.5 14 8
v -7.5 14 7
v -6.5 14 7
v -5.5 14 7
v -4.5 14 7
v -3.5 14 7
v -0.5 14 7
v 0.5 14 7
v 3.5 14 7
v 4.5 14 7
v 7.5 14 7
v -6.5 7 8
v -5.5 7 8
v -3.5 7 8
v -0.5 7 8
v 1.5 7 8
v 2.5 7 8
v 4.5 7 8
v 7.5 7 8
v -6.5 7 7
v -5.5 7 7
v -3.5 7 7
v -0.5 7 7
v 1.5 7 7
v 2.5 7 7
v 4.5 7 7
v 7.5 7 7
v -7.5 8 8
v -6.5 8 8
v -5.5 8 8
v -4.5 8 8
v -7.5 8 7
v -6.5 8 7
v -5.5 8 7
v -4.5 8 7
v 5.5 10 8
v 7.5 10 8
v 5.5 10 7
v 7.5 10 7
v -2.5 12 8
v -1.5 12 8
v 0.5 12 8
v 1.5 12 8
v 2.5 12 8
v 3.5 12 8
v 5.5 12 8
v 7.5 12 8
v -2.5 12 7
v -1.5 12 7
v 0.5 12 7
v 1.5 12 7
v 2.5 12 7
v 3.5 12 7
v 5.5 12 7
v 7.5 12 7
v -5.5 18 1
v 5.5 18 1
v -5.5 18 -1
v 5.5 18 -1
v -9.5 20 8
v 9.5 20 8
v -8.5 20 7
v 8.5 20 7
v -6.5 20 2
v 6.5 20 2
v -5.5 20 1
v 5.5 20 1
v -5.5 20 -1
v 5.5 20 -1
v -6.5 20 -2
v 6.5 20 -2
v -8.5 20 -7
v 8.5 20 -7
v -9.5 20 -8
v 9.5 20 -8

# faces
f 3/3/1 2/3/1 1/3/1
f 4/3/1 2/3/1 3/3/1
f 5/2/1 4/2/1 3/2/1
f 6/2/1 4/2/1 5/2/1
f 7/3/1 6/3/1 5/3/1
f 8/3/1 6/3/1 7/3/1
f 9/2/1 8/2/1 7/2/1
f 10/2/1 8/2/1 9/2/1
f 11/3/1 10/3/1 9/3/1
f 12/3/1 10/3/1 11/3/1
f 13/2/1 12/2/1 11/2/1
f 14/2/1 12/2/1 13/2/1
f 17/1/1 16/1/1 15/1/1
f 18/1/1 16/1/1 17/1/1
f 21/1/1 20/1/1 19/1/1
f 22/1/1 20/1/1 21/1/1
f 25/1/1 24/1/1 23/1/1
f 26/1/1 24/1/1 25/1/1
f 29/1/1 28/1/1 27/1/1
f 30/1/1 28/1/1 29/1/1
f 33/1/1 32/1/1 31/1/1
f 34/1/1 32/1/1 33/1/1
f 37/1/1 36/1/1 35/1/1
f 38/1/1 36/1/1 37/1/1
f 41/3/1 40/3/1 39/3/1
f 42/3/1 40/3/1 41/3/1
f 45/1/1 44/1/1 43/1/1
f 46/1/1 44/1/1 45/1/1
f 49/1/1 48/1/1 47/1/1
f 50/1/1 48/1/1 49/1/1
f 53/1/1 52/1/1 51/1/1
f 54/1/1 52/1/1 53/1/1
f 57/2/1 56/2/1 55/2/1
f 58/2/1 56/2/1 57/2/1
f 61/1/1 60/1/1 59/1/1
f 62/1/1 60/1/1 61/1/1
f 65/1/1 64/1/1 63/1/1
f 66/1/1 64/1/1 65/1/1
f 69/1/1 68/1/1 67/1/1
f 70/1/1 68/1/1 69/1/1
f 71/1/2 72/1/2 73/1/2
f 73/1/2 72/1/2 74/1/2
f 75/1/2 76/1/2 77/1/2
f 77/1/2 76/1/2 78/1/2
f 79/1/2 80/1/2 81/1/2
f 81/1/2 80/1/2 82/1/2
f 83/2/2 84/2/2 85/2/2
f 85/2/2 84/2/2 86/2/2
f 87/3/2 88/3/2 89/3/2
f 89/3/2 88/3/2 90/3/2
f 91/1/2 92/1/2 93/1/2
f 93/1/2 92/1/2 94/1/2
f 95/1/2 96/1/2 97/1/2
f 97/1/2 96/1/2 98/1/2
f 99/1/2 100/1/2 101/1/2
f 101/1/2 100/1/2 102/1/2
f 103/1/2 104/1/2 105/1/2
f 105/1/2 104/1/2 106/1/2
f 107/1/2 108/1/2 109/1/2
f 109/1/2 108/1/2 110/1/2
f 111/3/2 112/3/2 113/3/2
f 113/3/2 112/3/2 114/3/2
f 113/2/2 114/2/2 115/2/2
f 115/2/2 114/2/2 116/2/2
f 115/3/2 116/3/2 117/3/2
f 117/3/2 116/3/2 118/3/2
f 117/2/2 118/2/2 119/2/2
f 119/2/2 118/2/2 120/2/2
f 119/3/2 120/3/2 121/3/2
f 121/3/2 120/3/2 122/3/2
f 121/2/2 122/2/2 123/2/2
f 123/2/2 122/2/2 124/2/2
f 132/2/3 129/2/3 128/2/3
f 133/2/3 129/2/3 132/2/3
f 134/1/3 133/1/3 132/1/3
f 135/1/3 133/1/3 134/1/3
f 136/1/3 134/1/3 132/1/3
f 137/1/3 134/1/3 136/1/3
f 139/1/3 133/1/3 135/1/3
f 140/1/3 136/1/3 132/1/3
f 142/1/3 139/1/3 138/1/3
f 143/1/3 133/1/3 139/1/3
f 143/1/3 139/1/3 142/1/3
f 144/1/3 141/1/3 140/1/3
f 145/1/3 133/1/3 143/1/3
f 146/3/3 126/3/3 125/3/3
f 147/2/3 127/2/3 126/2/3
f 147/3/3 126/3/3 146/3/3
f 148/2/3 127/2/3 147/2/3
f 149/1/3 145/1/3 144/1/3
f 149/1/3 144/1/3 140/1/3
f 149/1/3 140/1/3 132/1/3
f 150/1/3 133/1/3 145/1/3
f 150/1/3 145/1/3 149/1/3
f 153/1/3 152/1/3 151/1/3
f 154/1/3 152/1/3 153/1/3
f 155/1/3 149/1/3 132/1/3
f 156/1/3 133/1/3 150/1/3
f 157/1/3 156/1/3 155/1/3
f 158/1/3 133/1/3 156/1/3
f 158/1/3 156/1/3 157/1/3
f 159/1/3 155/1/3 132/1/3
f 159/1/3 157/1/3 155/1/3
f 160/1/3 157/1/3 159/1/3
f 161/1/3 159/1/3 132/1/3
f 164/3/3 148/3/3 147/3/3
f 165/2/3 127/2/3 148/2/3
f 165/3/3 148/3/3 164/3/3
f 166/1/3 162/1/3 161/1/3
f 167/1/3 133/1/3 158/1/3
f 168/1/3 166/1/3 161/1/3
f 168/1/3 167/1/3 166/1/3
f 168/1/3 161/1/3 132/1/3
f 169/1/3 133/1/3 167/1/3
f 169/1/3 167/1/3 168/1/3
f 174/1/3 168/1/3 132/1/3
f 175/1/3 171/1/3 170/1/3
f 176/1/3 171/1/3 175/1/3
f 177/1/3 173/1/3 172/1/3
f 178/1/3 173/1/3 177/1/3
f 179/1/3 133/1/3 169/1/3
f 180/2/3 132/2/3 128/2/3
f 180/1/3 179/1/3 178/1/3
f 180/1/3 176/1/3 175/1/3
f 180/1/3 178/1/3 177/1/3
f 180/1/3 177/1/3 176/1/3
f 180/1/3 174/1/3 132/1/3
f 180/1/3 175/1/3 174/1/3
f 181/1/3 133/1/3 179/1/3
f 181/1/3 179/1/3 180/1/3
f 181/2/3 129/2/3 133/2/3
f 182/3/3 164/3/3 163/3/3
f 183/2/3 165/2/3 164/2/3
f 183/3/3 164/3/3 182/3/3
f 184/3/3 128/3/3 127/3/3
f 184/2/3 165/2/3 183/2/3
f 184/2/3 127/2/3 165/2/3
f 185/2/3 180/2/3 128/2/3
f 185/3/3 128/3/3 184/3/3
f 185/2/3 181/2/3 180/2/3
f 186/2/3 129/2/3 181/2/3
f 186/2/3 181/2/3 185/2/3
f 186/3/3 130/3/3 129/3/3
f 187/2/3 131/2/3 130/2/3
f 187/3/3 130/3/3 186/3/3
f 188/2/3 131/2/3 187/2/3
f 192/3/3 190/3/3 189/3/3
f 193/3/3 190/3/3 192/3/3
f 194/3/3 190/3/3 193/3/3
f 195/3/3 192/3/3 191/3/3
f 195/3/3 193/3/3 192/3/3
f 196/3/3 193/3/3 195/3/3
f 197/3/3 193/3/3 196/3/3
f 199/3/3 198/3/3 197/3/3
f 199/3/3 197/3/3 196/3/3
f 200/3/3 198/3/3 199/3/3
f 203/3/3 202/3/3 201/3/3
f 204/3/3 202/3/3 203/3/3
f 205/3/3 203/3/3 201/3/3
f 206/3/3 202/3/3 204/3/3
f 207/3/3 205/3/3 201/3/3
f 207/3/3 206/3/3 205/3/3
f 208/3/3 202/3/3 206/3/3
f 208/3/3 206/3/3 207/3/3
f 212/3/3 210/3/3 209/3/3
f 213/3/3 212/3/3 211/3/3
f 214/3/3 210/3/3 212/3/3
f 214/3/3 212/3/3 213/3/3
f 215/3/3 210/3/3 214/3/3
f 216/3/3 210/3/3 215/3/3
f 219/3/3 218/3/3 217/3/3
f 220/3/3 218/3/3 219/3/3
f 221/3/3 218/3/3 220/3/3
f 222/3/3 218/3/3 221/3/3
f 223/3/3 219/3/3 217/3/3
f 224/3/3 219/3/3 223/3/3
f 225/3/3 221/3/3 220/3/3
f 226/3/3 221/3/3 225/3/3
f 227/3/3 218/3/3 222/3/3
f 228/3/3 218/3/3 227/3/3
f 231/2/3 230/2/3 229/2/3
f 232/2/3 230/2/3 231/2/3
f 233/2/4 234/2/4 235/2/4
f 235/2/4 234/2/4 236/2/4
f 237/3/4 238/3/4 244/3/4
f 238/2/4 239/2/4 245/2/4
f 244/3/4 238/3/4 245/3/4
f 245/2/4 239/2/4 246/2/4
f 245/3/4 246/3/4 248/3/4
f 246/2/4 239/2/4 249/2/4
f 248/3/4 246/3/4 249/3/4
f 247/3/4 248/3/4 250/3/4
f 248/2/4 249/2/4 251/2/4
f 250/3/4 248/3/4 251/3/4
f 239/3/4 240/3/4 252/3/4
f 251/2/4 249/2/4 252/2/4
f 249/2/4 239/2/4 252/2/4
f 240/2/4 241/2/4 253/2/4
f 252/3/4 240/3/4 253/3/4
f 241/3/4 242/3/4 254/3/4
f 253/2/4 241/2/4 254/2/4
f 242/2/4 243/2/4 255/2/4
f 254/3/4 242/3/4 255/3/4
f 255/2/4 243/2/4 256/2/4
f 261/3/5 258/3/5 257/3/5
f 262/3/5 258/3/5 261/3/5
f 263/3/5 260/3/5 259/3/5
f 264/3/5 260/3/5 263/3/5
f 267/3/5 266/3/5 265/3/5
f 268/3/5 266/3/5 267/3/5
f 273/1/5 270/1/5 269/1/5
f 274/1/5 270/1/5 273/1/5
f 275/1/5 272/1/5 271/1/5
f 276/1/5 272/1/5 275/1/5
f 279/1/5 278/1/5 277/1/5
f 280/1/5 278/1/5 279/1/5
f 283/1/5 282/1/5 281/1/5
f 284/1/5 282/1/5 283/1/5
f 295/1/5 286/1/5 285/1/5
f 296/1/5 286/1/5 295/1/5
f 297/1/5 288/1/5 287/1/5
f 298/1/5 288/1/5 297/1/5
f 299/1/5 290/1/5 289/1/5
f 300/1/5 290/1/5 299/1/5
f 301/1/5 292/1/5 291/1/5
f 302/1/5 292/1/5 301/1/5
f 303/1/5 294/1/5 293/1/5
f 304/1/5 294/1/5 303/1/5
f 305/1/6 306/1/6 313/1/6
f 313/1/6 306/1/6 314/1/6
f 307/1/6 308/1/6 315/1/6
f 315/1/6 308/1/6 316/1/6
f 309/1/6 310/1/6 317/1/6
f 317/1/6 310/1/6 318/1/6
f 311/1/6 312/1/6 319/1/6
f 319/1/6 312/1/6 320/1/6
f 321/1/6 322/1/6 325/1/6
f 325/1/6 322/1/6 326/1/6
f 323/1/6 324/1/6 327/1/6
f 327/1/6 324/1/6 328/1/6
f 329/1/6 330/1/6 331/1/6
f 331/1/6 330/1/6 332/1/6
f 333/1/6 334/1/6 341/1/6
f 341/1/6 334/1/6 342/1/6
f 335/1/6 336/1/6 343/1/6
f 343/1/6 336/1/6 344/1/6
f 337/1/6 338/1/6 345/1/6
f 345/1/6 338/1/6 346/1/6
f 339/1/6 340/1/6 347/1/6
f 347/1/6 340/1/6 348/1/6
f 349/2/6 350/2/6 351/2/6
f 351/2/6 350/2/6 352/2/6
f 353/2/6 354/2/6 355/2/6
f 355/2/6 354/2/6 356/2/6
f 355/3/6 356/3/6 357/3/6
f 357/3/6 356/3/6 358/3/6
f 357/2/6 358/2/6 359/2/6
f 359/2/6 358/2/6 360/2/6
f 357/2/6 359/2/6 361/2/6
f 360/2/6 358/2/6 362/2/6
f 355/3/6 357/3/6 363/3/6
f 361/2/6 362/2/6 363/2/6
f 357/2/6 361/2/6 363/2/6
f 362/2/6 358/2/6 364/2/6
f 363/2/6 362/2/6 364/2/6
f 358/3/6 356/3/6 364/3/6
f 353/2/6 355/2/6 365/2/6
f 355/3/6 363/3/6 365/3/6
f 363/3/6 364/3/6 365/3/6
f 364/3/6 356/3/6 366/3/6
f 365/3/6 364/3/6 366/3/6
f 356/2/6 354/2/6 366/2/6
f 353/2/6 365/2/6 367/2/6
f 365/2/6 366/2/6 367/2/6
f 366/2/6 354/2/6 368/2/6
f 367/2/6 366/2/6 368/2/6
